<svg viewBox="0 0 24 24" fill="none" xmlns="http://www.w3.org/2000/svg"><path d="M6 7v2a1 1 0 001 1h2a1 1 0 001-1V7a1 1 0 00-1-1H7a1 1 0 00-1 1zM3 8a1 1 0 001-1V5a1 1 0 011-1h2a1 1 0 000-2H5a3 3 0 00-3 3v2a1 1 0 001 1zm9 2a1 1 0 001-1V7a1 1 0 00-2 0v2a1 1 0 001 1zm3 5h2a1 1 0 001-1v-2a1 1 0 00-1-1h-2a1 1 0 00-1 1v2a1 1 0 001 1zm0-5h2a1 1 0 001-1V7a1 1 0 00-1-1h-2a1 1 0 00-1 1v2a1 1 0 001 1zm6 6a1 1 0 00-1 1v2a1 1 0 01-1 1h-2a1 1 0 000 2h2a3 3 0 003-3v-2a1 1 0 00-1-1zM19 2h-2a1 1 0 100 2h2a1 1 0 011 1v2a1 1 0 002 0V5a3 3 0 00-3-3zm-1 15a1 1 0 00-1-1h-4v-4a1 1 0 00-1-1H7a1 1 0 000 2h4v4a1 1 0 001 1h5a1 1 0 001-1zm-9-3H7a1 1 0 00-1 1v2a1 1 0 001 1h2a1 1 0 001-1v-2a1 1 0 00-1-1zm-2 6H5a1 1 0 01-1-1v-2a1 1 0 10-2 0v2a3 3 0 003 3h2a1 1 0 000-2z" fill="currentColor"></path></svg>